<svg width="43" height="47" viewBox="0 0 43 47" fill="none" xmlns="http://www.w3.org/2000/svg">
<path d="M20 0.734375C8.95161 0.734375 0 9.68599 0 20.7344C0 31.7828 8.95161 40.7344 20 40.7344C31.0484 40.7344 40 31.7828 40 20.7344C40 9.68599 31.0484 0.734375 20 0.734375ZM29.8226 14.436L26.5403 29.9037C26.2984 31.0005 25.6452 31.2666 24.7339 30.7505L19.7339 27.065L17.3226 29.3876C17.0565 29.6537 16.8306 29.8795 16.3145 29.8795L16.6694 24.7908L25.9355 16.4199C26.3387 16.065 25.8468 15.8634 25.3145 16.2182L13.8629 23.4279L8.92742 21.8876C7.85484 21.5489 7.83065 20.815 9.15323 20.2989L28.4355 12.8634C29.3306 12.5408 30.1129 13.0811 29.8226 14.436Z" fill="#1B1B2F"/>
</svg>
