<svg width="40" height="40" viewBox="0 0 40 40" fill="none" xmlns="http://www.w3.org/2000/svg">
<g clip-path="url(#clip0)">
<path d="M34.6873 3.89891C33.6952 2.98485 29.6795 0.0707845 20.7264 0.031722C20.7264 0.031722 10.1717 -0.601091 5.03109 4.11766C2.17171 6.97703 1.1639 11.1723 1.05452 16.3677C0.945147 21.563 0.812334 31.2973 10.1951 33.938H10.203L10.1951 37.9692C10.1951 37.9692 10.1326 39.602 11.2108 39.9302C12.5076 40.3364 13.2733 39.0942 14.5155 37.7583C15.1951 37.0239 16.1326 35.9458 16.8436 35.1255C23.2655 35.6645 28.1952 34.4302 28.7577 34.2505C30.0545 33.8286 37.3905 32.8911 38.578 23.1567C39.8123 13.1098 37.9842 6.7661 34.6873 3.89891ZM35.7733 22.4223C34.7655 30.5473 28.8202 31.063 27.7264 31.4145C27.2577 31.563 22.9217 32.6411 17.4764 32.2895C17.4764 32.2895 13.4139 37.188 12.1483 38.4614C11.7342 38.8755 11.2811 38.8364 11.2889 38.0161C11.2889 37.477 11.3201 31.3208 11.3201 31.3208C11.3123 31.3208 11.3123 31.3208 11.3201 31.3208C3.36702 29.1177 3.83577 20.8286 3.92171 16.4927C4.00765 12.1567 4.82796 8.60203 7.24984 6.21141C11.6014 2.2661 20.5623 2.85203 20.5623 2.85203C28.1327 2.88328 31.7577 5.16453 32.6014 5.93016C35.3905 8.32078 36.8123 14.0395 35.7733 22.4223ZM24.9139 16.1098C24.9452 16.7817 23.9373 16.8286 23.9061 16.1567C23.8202 14.438 23.0155 13.602 21.3592 13.5083C20.6873 13.4692 20.7498 12.4614 21.4139 12.5005C23.5936 12.6177 24.8045 13.8677 24.9139 16.1098ZM26.4998 16.9927C26.578 13.6802 24.5076 11.0864 20.578 10.7973C19.9139 10.7505 19.9842 9.74266 20.6483 9.78953C25.1795 10.1177 27.5936 13.2348 27.5077 17.0161C27.4998 17.688 26.4842 17.6567 26.4998 16.9927ZM30.1717 18.0395C30.1795 18.7114 29.1639 18.7192 29.1639 18.0473C29.117 11.6802 24.8748 8.21141 19.7264 8.17235C19.0623 8.16453 19.0623 7.16453 19.7264 7.16453C25.4842 7.2036 30.117 11.1802 30.1717 18.0395ZM29.2889 25.7036V25.7192C28.4452 27.2036 26.867 28.8442 25.242 28.3208L25.2264 28.2973C23.578 27.8364 19.6951 25.8364 17.242 23.8833C15.9764 22.8833 14.8201 21.7036 13.9295 20.5708C13.1248 19.563 12.3123 18.3677 11.5233 16.9302C9.85921 13.9223 9.49202 12.5786 9.49202 12.5786C8.96859 10.9536 10.6014 9.37547 12.0936 8.53172H12.1092C12.828 8.15672 13.5155 8.28172 13.9764 8.83641C13.9764 8.83641 14.9451 9.99266 15.3592 10.563C15.7498 11.0942 16.2733 11.9458 16.5467 12.4223C17.0233 13.2739 16.7264 14.1411 16.2576 14.5005L15.3201 15.2505C14.8436 15.6333 14.9061 16.3442 14.9061 16.3442C14.9061 16.3442 16.2967 21.602 21.492 22.9302C21.492 22.9302 22.203 22.9927 22.5858 22.5161L23.3358 21.5786C23.6952 21.1098 24.5623 20.813 25.4139 21.2895C26.5623 21.938 28.0233 22.9458 28.992 23.8598C29.5389 24.3052 29.6639 24.9848 29.2889 25.7036Z" fill="#1B1B2F"/>
</g>
<defs>
<clipPath id="clip0">
<rect width="40" height="40" fill="white"/>
</clipPath>
</defs>
</svg>
