<svg width="38" height="40" viewBox="0 0 38 40" fill="none" xmlns="http://www.w3.org/2000/svg">
<path d="M29.0776 8.08594C25.879 4.80469 21.6193 3 17.0924 3C7.74844 3 0.145045 10.7812 0.145045 20.3438C0.145045 23.3984 0.923705 26.3828 2.40469 29.0156L0 38L8.98513 35.5859C11.4585 36.9688 14.2449 37.6953 17.0847 37.6953H17.0924C26.4287 37.6953 34.2 29.9141 34.2 20.3516C34.2 15.7188 32.2763 11.3672 29.0776 8.08594ZM17.0924 34.7734C14.5579 34.7734 12.0769 34.0781 9.91647 32.7656L9.405 32.4531L4.07652 33.8828L5.49643 28.5625L5.16054 28.0156C3.74826 25.7188 3.00777 23.0703 3.00777 20.3438C3.00777 12.3984 9.32866 5.92969 17.1 5.92969C20.8635 5.92969 24.398 7.42969 27.0546 10.1562C29.7113 12.8828 31.3449 16.5 31.3373 20.3516C31.3373 28.3047 24.8561 34.7734 17.0924 34.7734ZM24.8179 23.9766C24.398 23.7578 22.314 22.7109 21.9246 22.5703C21.5353 22.4219 21.2529 22.3516 20.9704 22.7891C20.6879 23.2266 19.8788 24.1953 19.6268 24.4922C19.3825 24.7812 19.1306 24.8203 18.7108 24.6016C16.2221 23.3281 14.5884 22.3281 12.9471 19.4453C12.512 18.6797 13.3823 18.7344 14.1915 17.0781C14.3289 16.7891 14.2602 16.5391 14.1533 16.3203C14.0464 16.1016 13.1991 13.9688 12.8479 13.1016C12.5044 12.2578 12.1532 12.375 11.8937 12.3594C11.6494 12.3438 11.3669 12.3438 11.0845 12.3438C10.802 12.3438 10.344 12.4531 9.95464 12.8828C9.56531 13.3203 8.47366 14.3672 8.47366 16.5C8.47366 18.6328 9.99281 20.6953 10.1989 20.9844C10.4127 21.2734 13.1838 25.6484 17.4359 27.5312C20.123 28.7188 21.1765 28.8203 22.5201 28.6172C23.3369 28.4922 25.024 27.5703 25.3752 26.5547C25.7263 25.5391 25.7263 24.6719 25.6195 24.4922C25.5202 24.2969 25.2378 24.1875 24.8179 23.9766Z" fill="#1B1B2F"/>
</svg>
