<svg width="62" height="62" viewBox="0 0 62 62" fill="none" xmlns="http://www.w3.org/2000/svg">
<path d="M22.75 25.4166H17.75V29.9166H22.75V25.4166ZM32.75 25.4166H27.75V29.9166H32.75V25.4166ZM42.75 25.4166H37.75V29.9166H42.75V25.4166ZM47.75 9.66663H45.25V5.16663H40.25V9.66663H20.25V5.16663H15.25V9.66663H12.75C9.975 9.66663 7.775 11.6916 7.775 14.1666L7.75 45.6666C7.75 48.1416 9.975 50.1666 12.75 50.1666H47.75C50.5 50.1666 52.75 48.1416 52.75 45.6666V14.1666C52.75 11.6916 50.5 9.66663 47.75 9.66663ZM47.75 45.6666H12.75V20.9166H47.75V45.6666Z" fill="#1F4068"/>
</svg>
