<svg width="62" height="62" viewBox="0 0 62 62" fill="none" xmlns="http://www.w3.org/2000/svg">
<path d="M31.5 9C19.08 9 9 19.08 9 31.5C9 43.92 19.08 54 31.5 54C43.92 54 54 43.92 54 31.5C54 19.08 43.92 9 31.5 9ZM34.6725 45.2025V49.5H28.665V45.1575C24.8175 44.3475 21.555 41.8725 21.3075 37.5075H25.7175C25.9425 39.87 27.5625 41.715 31.68 41.715C36.09 41.715 37.08 39.51 37.08 38.1375C37.08 36.27 36.09 34.515 31.0725 33.3225C25.4925 31.9725 21.6675 29.6775 21.6675 25.065C21.6675 21.195 24.795 18.675 28.665 17.8425V13.5H34.6725V17.8875C38.8575 18.9 40.95 22.0725 41.085 25.515H36.675C36.5625 23.0175 35.235 21.3075 31.68 21.3075C28.305 21.3075 26.28 22.8375 26.28 24.9975C26.28 26.8875 27.7425 28.125 32.2875 29.295C36.8325 30.465 41.6925 32.4225 41.6925 38.0925C41.67 42.21 38.5875 44.46 34.6725 45.2025Z" fill="#1F4068"/>
</svg>
