<svg width="62" height="62" viewBox="0 0 62 62" fill="none" xmlns="http://www.w3.org/2000/svg">
<path d="M39 5H24V9.95238H39V5ZM49.075 20.8229L52.625 17.3067C51.55 16.0438 50.375 14.8552 49.1 13.8152L45.55 17.3314C41.675 14.261 36.8 12.4286 31.5 12.4286C19.075 12.4286 9 22.4076 9 34.7143C9 47.021 19.05 57 31.5 57C43.95 57 54 47.021 54 34.7143C54 29.4648 52.15 24.6362 49.075 20.8229ZM31.5 52.0476C21.825 52.0476 14 44.2971 14 34.7143C14 25.1314 21.825 17.381 31.5 17.381C41.175 17.381 49 25.1314 49 34.7143C49 44.2971 41.175 52.0476 31.5 52.0476ZM30.7 39.6667H17.375C18.8 43.6781 21.925 46.8971 25.9 48.4819L25.625 48.3333L30.7 39.6667ZM45.625 29.7619C44.2 25.8 41.175 22.6057 37.275 20.9962L32.15 29.7619H45.625ZM28.025 49.1505C29.15 49.4229 30.3 49.5714 31.5 49.5714C34.85 49.5714 37.925 48.4571 40.425 46.6248L35.15 36.9676L28.025 49.1505ZM20.375 24.7848C17.975 27.4095 16.5 30.901 16.5 34.7143C16.5 35.5562 16.6 36.3733 16.725 37.1905H28.525L20.375 24.7848ZM42.35 44.941C44.925 42.2914 46.5 38.6762 46.5 34.7143C46.5 33.8724 46.4 33.0552 46.275 32.2381H35.425L42.35 44.941ZM34.825 20.2286C33.75 20.0057 32.65 19.8571 31.5 19.8571C28 19.8571 24.775 21.0705 22.225 23.0514L28.025 31.8667L34.825 20.2286Z" fill="#1F4068"/>
</svg>
