<svg width="32" height="31" viewBox="0 0 32 31" fill="none" xmlns="http://www.w3.org/2000/svg">
<path d="M16.0076 7.63867C11.4648 7.63867 7.80047 11.1455 7.80047 15.4932C7.80047 19.8408 11.4648 23.3476 16.0076 23.3476C20.5505 23.3476 24.2148 19.8408 24.2148 15.4932C24.2148 11.1455 20.5505 7.63867 16.0076 7.63867ZM16.0076 20.5996C13.0719 20.5996 10.6719 18.3096 10.6719 15.4932C10.6719 12.6768 13.0648 10.3867 16.0076 10.3867C18.9505 10.3867 21.3433 12.6768 21.3433 15.4932C21.3433 18.3096 18.9433 20.5996 16.0076 20.5996ZM26.4648 7.31738C26.4648 8.33593 25.6076 9.14941 24.5505 9.14941C23.4862 9.14941 22.6362 8.32909 22.6362 7.31738C22.6362 6.30566 23.4933 5.48535 24.5505 5.48535C25.6076 5.48535 26.4648 6.30566 26.4648 7.31738ZM31.9005 9.17675C31.779 6.72265 31.1933 4.54882 29.3148 2.75781C27.4433 0.966793 25.1719 0.406246 22.6076 0.283199C19.9648 0.139645 12.0433 0.139645 9.40047 0.283199C6.84333 0.39941 4.5719 0.959957 2.69333 2.75097C0.81476 4.54199 0.236189 6.71581 0.107617 9.16992C-0.0423828 11.6992 -0.0423828 19.2803 0.107617 21.8096C0.229046 24.2637 0.81476 26.4375 2.69333 28.2285C4.5719 30.0195 6.83619 30.5801 9.40047 30.7031C12.0433 30.8467 19.9648 30.8467 22.6076 30.7031C25.1719 30.5869 27.4433 30.0264 29.3148 28.2285C31.1862 26.4375 31.7719 24.2637 31.9005 21.8096C32.0505 19.2803 32.0505 11.706 31.9005 9.17675ZM28.4862 24.5234C27.929 25.8633 26.8505 26.8955 25.4433 27.4355C23.3362 28.2353 18.3362 28.0508 16.0076 28.0508C13.679 28.0508 8.6719 28.2285 6.5719 27.4355C5.1719 26.9023 4.09333 25.8701 3.52905 24.5234C2.69333 22.5068 2.88619 17.7217 2.88619 15.4932C2.88619 13.2646 2.70047 8.47265 3.52905 6.46288C4.08619 5.12304 5.16476 4.09081 6.5719 3.55078C8.67904 2.75097 13.679 2.93554 16.0076 2.93554C18.3362 2.93554 23.3433 2.75781 25.4433 3.55078C26.8433 4.08398 27.9219 5.11621 28.4862 6.46288C29.3219 8.47949 29.129 13.2646 29.129 15.4932C29.129 17.7217 29.3219 22.5137 28.4862 24.5234Z" fill="#E43F5A"/>
</svg>
